<svg width="81" height="82" viewBox="0 0 81 82" fill="none" xmlns="http://www.w3.org/2000/svg">
<g clip-path="url(#clip0_478_220)">
<path d="M21.0042 22.1496C20.1556 22.156 19.4665 22.8573 19.4729 23.708L19.478 24.3886C19.4828 25.0228 18.9621 25.5527 18.3295 25.5574C17.6969 25.5622 17.1685 25.0557 17.1636 24.406L17.1585 23.7254C17.1521 22.8746 16.4526 22.1838 15.6039 22.1902C14.7553 22.1965 14.0663 22.8978 14.0726 23.7486L14.0778 24.4292C14.0953 26.7649 16.0229 28.6686 18.3527 28.6511C20.6826 28.6336 22.5815 26.7166 22.5638 24.3655L22.5587 23.6849C22.5523 22.8341 21.8528 22.1432 21.0042 22.1496Z" fill="#127BD7"/>
<path d="M31.8532 28.5342C34.183 28.5167 36.0048 26.6003 35.9872 24.2491L35.9821 23.5685C35.9757 22.7178 35.2761 22.0269 34.4275 22.0333C33.5789 22.0397 32.8898 22.7409 32.8962 23.5917L32.9013 24.2723C32.9061 24.9065 32.4626 25.4358 31.83 25.4405C31.1974 25.4453 30.7461 24.9382 30.7412 24.2885L30.7361 23.6079C30.7297 22.7572 30.0302 22.0663 29.1816 22.0727C28.333 22.0791 27.6439 22.7803 27.6503 23.6311L27.6554 24.3117C27.673 26.6629 29.5234 28.5517 31.8532 28.5342Z" fill="#127BD7"/>
<path d="M69.3786 51.0696C68.0262 49.7339 66.1539 49.0364 64.2418 49.2054C63.3012 49.2898 62.2996 49.4675 61.2525 49.7538C60.4364 49.9765 59.949 50.831 60.1712 51.6492C60.3934 52.4674 61.2457 52.956 62.0618 52.7333C62.9241 52.4948 63.7563 52.3493 64.4964 52.2819C65.4987 52.197 66.4735 52.5609 67.1733 53.2827C67.8731 54.0045 68.2199 54.9765 68.1193 55.9673C67.8467 58.7074 66.9217 62.9219 64.2123 67.8769L61.9596 63.7791C61.5685 63.0704 60.8247 62.6429 60.0069 62.649C59.1893 62.6706 58.4676 63.1401 58.1028 63.8699L56.1575 67.8446C53.4053 62.977 52.4482 58.8075 52.1191 56.0874C52.0037 55.0983 52.3357 54.1057 53.0246 53.3735C53.6523 52.7191 54.5135 52.3414 55.4083 52.3192C55.5639 52.4882 55.7821 52.7805 55.9536 53.0112C57.1535 54.58 59.3975 57.5178 63.6982 56.9441C64.546 56.8294 65.1419 56.0515 65.0275 55.2016C64.9131 54.3516 64.1371 53.7541 63.2893 53.8688C60.9463 54.1803 59.7329 52.8745 58.4082 51.121C57.6914 50.1828 57.0213 49.3061 55.9251 49.2215C53.9953 49.0813 52.1337 49.8068 50.8018 51.2091C49.4699 52.6113 48.8362 54.5188 49.0665 56.4197C49.4461 59.7118 50.6886 64.9001 54.3904 70.8744C54.8121 71.5519 55.5557 71.9485 56.3424 71.9116C57.129 71.8748 57.8353 71.4054 58.1848 70.6912L60.0997 66.7786L62.2897 70.7532C62.6651 71.431 63.3781 71.8588 64.1498 71.8839C64.1653 71.8838 64.1807 71.8837 64.2115 71.8835C64.9676 71.8778 65.6743 71.4703 66.0551 70.8177C69.6821 64.773 70.8465 59.5511 71.1919 56.2381C71.3936 54.3339 70.7314 52.4516 69.3786 51.0696Z" fill="#127BD7"/>
<path d="M59.4135 41.1358C53.5658 41.1797 48.3868 43.9721 45.0709 48.2974C43.149 47.1517 40.9688 46.5493 38.7007 46.5663L32.4519 46.6132L32.4392 44.9272C37.9745 42.3177 41.9147 36.8894 42.3759 30.4972C44.4708 30.0174 46.0767 28.1181 46.0598 25.8752C46.0431 23.6477 44.4553 21.7879 42.4459 21.3234L42.3971 14.8267L44.5726 14.8104C45.4212 14.804 46.1101 14.0718 46.1037 13.221C46.0527 6.43044 40.5027 0.918683 33.7447 0.969433L22.6974 1.05239C20.3058 1.07035 18.2167 2.32358 16.9808 4.17369C11.4134 4.55582 8.57539 8.81569 7.75675 12.8129C7.69735 13.1227 7.6535 13.4479 7.65606 13.7882L7.71449 21.5688C5.7124 22.0788 4.1217 23.9471 4.13843 26.1745C4.15527 28.4174 5.77408 30.2925 7.89138 30.7407C8.48112 37.357 12.8277 42.8933 18.709 45.2778L18.7197 46.7009L12.4709 46.7478C5.6667 46.8144 0.246451 52.4085 0.297677 59.2301L0.410702 74.2807C0.41709 75.1315 1.05457 75.7764 1.90318 75.77L50.1042 75.4081C50.243 75.407 50.3663 75.3906 50.4895 75.3587C53.2015 76.9162 56.3404 77.7899 59.6885 77.7647C69.7638 77.6891 77.8951 69.4139 77.8192 59.3131C77.7434 49.2123 69.4888 41.0601 59.4135 41.1358ZM7.77348 27.3693C7.46269 27.0777 7.22811 26.6618 7.22451 26.1823C7.22091 25.7027 7.44921 25.2834 7.75547 24.9717L7.77348 27.3693ZM37.1861 60.6237C37.1952 61.8302 36.2152 62.8276 35.0117 62.8367C33.8082 62.8457 32.8133 61.8631 32.8042 60.6566C32.7952 59.4501 33.7752 58.4527 34.9787 58.4437C36.1822 58.4346 37.177 59.4017 37.1861 60.6237ZM43.0204 25.9134C43.024 26.393 42.7957 26.8123 42.4894 27.124L42.4714 24.7264C42.7821 25.0026 43.0168 25.4339 43.0204 25.9134ZM19.2662 6.46144C19.2813 6.41492 19.3117 6.35281 19.3268 6.30629C19.9501 5.06408 21.2395 4.17265 22.7207 4.16152L33.7681 4.07856C38.3043 4.0445 42.11 7.41914 42.8831 11.7447L22.7788 11.8957C20.665 11.9116 18.9393 10.192 18.9233 8.05734C18.9191 7.50048 19.0384 6.94269 19.2662 6.46144ZM10.742 13.7805C10.7566 13.6721 10.7713 13.5637 10.7859 13.4553C10.9201 12.8355 11.3399 11.2081 12.4248 9.79228C13.311 8.62544 14.4625 7.8588 15.864 7.50795C15.85 7.69369 15.8361 7.89489 15.8375 8.08051C15.8579 10.8029 17.4493 13.1423 19.7259 14.2545C16.3726 17.6983 12.6278 18.3297 10.7766 18.3901L10.742 13.7805ZM10.8741 29.3106L10.8153 21.4836C13.5921 21.4009 18.8619 20.4331 23.234 14.9861L39.3113 14.8654L39.4182 29.0962C39.4773 36.9696 33.1068 43.4217 25.2534 43.4806C17.3999 43.5396 10.9331 37.1685 10.8741 29.3106ZM24.021 72.5256L3.4847 72.6798L3.38364 59.2223C3.34752 54.4117 6.86651 50.4252 11.6462 49.9407L11.6664 52.6321C8.8945 53.3645 6.90751 55.8855 6.92982 58.8554L6.98093 65.6614C6.98732 66.5122 7.65623 67.2342 8.50484 67.2279L10.4335 67.2134C11.2821 67.207 11.9712 66.5057 11.9648 65.655C11.9584 64.8042 11.2589 64.1133 10.4103 64.1197L10.0554 64.1224L10.0159 58.8632C10.0022 57.0379 11.4106 55.5577 13.2313 55.5441C15.052 55.5304 16.4826 57.0047 16.4962 58.8145L16.5357 64.0737L15.7334 64.0797C14.8847 64.0861 14.1957 64.7874 14.202 65.6382C14.2084 66.4889 14.908 67.1798 15.7566 67.1734L18.179 67.1552C19.0276 67.1488 19.6547 66.4171 19.6483 65.5663L19.5975 58.7912C19.5748 55.7749 17.5501 53.2686 14.7677 52.6089L14.747 49.8555L19.5764 49.8192L23.884 54.273L24.021 72.5256ZM21.8128 47.6368L21.8022 46.2291C22.884 46.4531 24.073 46.5679 25.2765 46.5588C26.696 46.5482 28.1296 46.3673 29.3615 46.0331L29.3729 47.549L25.4212 51.446L21.8128 47.6368ZM26.9547 54.2963L31.5803 49.7291L33.401 49.7154L33.4451 55.5934C31.29 56.2747 29.7159 58.2975 29.7338 60.6797C29.7556 63.5877 32.1342 65.9521 35.0349 65.9303C37.9356 65.9085 40.2939 63.524 40.272 60.6005C40.2541 58.2184 38.6806 56.2192 36.5156 55.5703L36.4714 49.6924L38.7241 49.6754C40.3904 49.6629 41.983 50.0996 43.3932 50.9089C42.024 53.5025 41.2593 56.4628 41.2829 59.6029C41.3203 64.5837 43.3445 69.07 46.5786 72.3562L27.0915 72.5025L26.9547 54.2963ZM59.6655 74.702C51.2875 74.7649 44.4318 67.979 44.3689 59.5952C44.3059 51.2114 51.0743 44.3232 59.4369 44.2604C67.7996 44.1976 74.6707 50.9834 74.7336 59.3672C74.7966 67.751 68.0282 74.6392 59.6655 74.702Z" fill="#127BD7"/>
</g>
<defs>
<clipPath id="clip0_478_220">
<rect width="80" height="80" fill="white" transform="translate(0.120605 1.12354) rotate(-0.430259)"/>
</clipPath>
</defs>
</svg>
