<svg width="64" height="83" viewBox="0 0 64 83" fill="none" xmlns="http://www.w3.org/2000/svg">
<path d="M6.66239 45.4311C7.85971 48.1122 9.49986 51.7843 9.61505 53.524C9.98191 59.0714 11.1907 69.3607 15.1613 75.9349C15.3037 76.1714 15.4562 76.4358 15.6178 76.7163C16.8359 78.8283 18.5033 81.72 21.0596 82.0005C21.1887 82.0149 21.3276 82.0228 21.4736 82.0217C22.3372 82.0152 23.4824 81.6925 24.6278 80.4375C27.48 77.3112 27.5327 72.0405 27.5744 67.8058C27.5843 66.8581 27.5928 65.9634 27.6346 65.2C27.7472 63.1355 28.3862 56.3764 31.8914 56.0864C31.9371 56.0824 31.9791 56.0686 32.0229 56.062C32.0678 56.0688 32.11 56.0811 32.1557 56.0844C36.061 56.3484 36.6628 62.2882 37.005 69.4369C37.1186 71.7993 37.2163 73.8406 37.5732 75.3193C38.1271 77.611 38.9521 80.1076 40.8707 81.2479C41.5132 81.63 42.2224 81.82 42.9641 81.8144C43.3457 81.8116 43.7359 81.7564 44.1302 81.6491C46.419 81.0262 47.7036 78.5209 48.6422 76.6923C48.8356 76.3156 49.013 75.966 49.182 75.6767C53.0516 69.0446 54.1057 58.7392 54.3892 53.1869C54.4783 51.4448 56.0631 47.7493 57.22 45.0506C57.8874 43.494 58.4641 42.1496 58.8049 41.1283C62.0949 31.2678 68.2183 12.9136 55.8275 3.61726C52.6598 1.23992 48.3475 0.340832 43.69 1.08499C41.2848 1.46844 39.269 2.05146 37.49 2.5643C35.468 3.14827 33.7212 3.65277 31.7774 3.79787C31.7263 3.80185 31.6798 3.8157 31.6306 3.82417C31.5813 3.81734 31.5346 3.80329 31.4835 3.80007C30.4035 3.73619 29.38 3.55398 28.338 3.31521C28.2069 3.2721 28.0722 3.22541 27.9411 3.1841C27.7866 3.13486 27.6306 3.11443 27.4756 3.10839C26.9164 2.9659 26.3481 2.81537 25.753 2.65244C23.9665 2.16547 21.9413 1.6137 19.5314 1.26641C14.8616 0.590497 10.565 1.55604 7.43244 3.98069C-4.81643 13.4621 1.58107 31.7222 5.01875 41.5322C5.37488 42.5492 5.97171 43.8848 6.66239 45.4311ZM9.61918 6.83248C12.8034 4.36964 16.8781 4.51994 19.0225 4.82962C21.2153 5.14615 23.0448 5.64449 24.8151 6.12708C25.6634 6.35831 26.4946 6.57616 27.332 6.77326C30.9629 7.96546 34.2516 9.38252 38.2298 12.1984C38.7441 12.5626 39.297 12.9418 39.8652 13.3299C40.1777 13.5436 40.5332 13.6435 40.8844 13.6409C41.4532 13.6366 42.0102 13.3615 42.354 12.8532C42.9104 12.0309 42.6977 10.912 41.8792 10.353C41.3272 9.97557 40.7914 9.6079 40.2924 9.25526C38.8406 8.22759 37.4725 7.38739 36.1591 6.66018C36.9298 6.46179 37.6978 6.24903 38.4791 6.02357C40.241 5.51446 42.0638 4.98868 44.2516 4.63926C46.3928 4.29739 50.4648 4.08592 53.683 6.50068C62.7474 13.3012 59.8677 26.6118 55.4072 39.9838C55.1137 40.8635 54.5388 42.2052 53.9295 43.6263C52.5252 46.902 50.9333 50.6146 50.8106 53.0023C50.5435 58.2268 49.5759 67.8836 46.0901 73.8559C45.8919 74.1949 45.6818 74.6032 45.4558 75.0432C44.9322 76.065 43.9565 77.9668 43.1921 78.175C42.8783 78.2584 42.7631 78.1909 42.6938 78.1491C42.1125 77.8034 41.5612 76.5655 41.0545 74.4697C40.778 73.3243 40.6826 71.3514 40.5827 69.2633C40.2534 62.3972 39.8029 52.994 32.3948 52.4917C32.2594 52.4846 32.1269 52.4955 31.9981 52.5163C31.8671 52.4965 31.7327 52.4877 31.5948 52.4977C27.1513 52.8658 24.4738 57.3075 24.055 65.0027C24.0084 65.8464 23.9993 66.7806 23.9897 67.7689C23.9533 71.3888 23.9092 75.8944 21.9846 78.004C21.6771 78.3411 21.4833 78.4182 21.4484 78.4202C20.9808 78.4237 20.0608 77.2427 18.7165 74.9101C18.5422 74.6073 18.377 74.3214 18.2228 74.0661C14.6486 68.1477 13.5361 58.5056 13.1905 53.2848C13.0328 50.9001 11.3854 47.2109 9.93112 43.9567C9.30058 42.5458 8.70555 41.212 8.39886 40.3368C3.73717 27.0343 0.658769 13.7684 9.61918 6.83248Z" fill="#127BD7"/>
<path d="M41.0695 30.8992C42.7017 30.8869 44.0149 29.5478 44.0026 27.9081C43.9902 26.2685 42.6571 24.9492 41.0249 24.9615C39.3928 24.9737 38.0796 26.3129 38.0919 27.9525C38.1042 29.5922 39.4373 30.9114 41.0695 30.8992Z" fill="#127BD7"/>
<path d="M22.5994 31.0379C24.2316 31.0256 25.5448 29.6865 25.5325 28.0468C25.5201 26.4072 24.187 25.0879 22.5548 25.1002C20.9227 25.1124 19.6095 26.4516 19.6218 28.0912C19.6341 29.7309 20.9672 31.0501 22.5994 31.0379Z" fill="#127BD7"/>
<path d="M22.9994 36.8163C22.2797 37.4985 22.248 38.6381 22.9271 39.3611C25.3718 41.9616 28.5681 43.3794 31.9275 43.3542C35.2868 43.3289 38.4615 41.8633 40.8669 39.2264C41.5351 38.4933 41.4862 37.3552 40.7564 36.683C40.0266 36.0108 38.8937 36.0607 38.2246 36.7938C36.4999 38.685 34.2538 39.7359 31.9004 39.7536C29.5471 39.7712 27.2855 38.7542 25.5326 36.8891C24.8534 36.167 23.719 36.1341 22.9994 36.8163Z" fill="#127BD7"/>
</svg>
