<svg width="81" height="81" viewBox="0 0 81 81" fill="none" xmlns="http://www.w3.org/2000/svg">
<g clip-path="url(#clip0_478_218)">
<path d="M5.28818 1.12393C2.52466 1.14468 0.265418 3.43811 0.286171 6.20163L0.639411 53.2403C0.660164 56.0038 2.95359 58.2631 5.71712 58.2423L23.3566 58.1099L23.4575 71.5495L19.2577 71.581C19.2073 71.5814 19.1485 71.5818 19.0981 71.5822C18.1744 71.6312 17.458 72.4262 17.5069 73.3498C17.5558 74.2735 18.3592 74.9899 19.2829 74.9409L39.4423 74.7895C40.3664 74.7994 41.1252 74.0461 41.1351 73.122C41.1449 72.1979 40.3916 71.4391 39.4675 71.4292C39.4507 71.4294 39.4339 71.4295 39.4171 71.4296L35.2172 71.4612L35.1163 58.0215L52.7558 57.8891C55.5193 57.8683 57.7786 55.5749 57.7578 52.8114L57.4046 5.7727C57.3838 3.00918 55.0904 0.749936 52.3269 0.770689C51.4028 0.760828 50.644 1.51415 50.6341 2.43825C50.6243 3.36235 51.3776 4.12111 52.3017 4.13097C52.3185 4.13085 52.3353 4.13072 52.3521 4.13059C53.3097 4.1234 54.0375 4.84036 54.0447 5.79793L54.3979 52.8366C54.4051 53.7942 53.6881 54.522 52.7306 54.5292L5.69188 54.8824C4.73431 54.8896 4.00651 54.1727 3.99932 53.2151L3.64608 6.1764C3.63889 5.21883 4.35584 4.49103 5.31341 4.48383L45.6323 4.18106C46.5564 4.19092 47.3151 3.4376 47.325 2.5135C47.3349 1.5894 46.5815 0.830634 45.6574 0.820774C45.6406 0.8209 45.6238 0.821026 45.607 0.821152L5.28818 1.12393ZM19.5742 11.937C17.827 11.9501 16.4486 12.9601 15.8138 14.5609L15.7884 14.5359L15.714 14.696L10.9087 24.7116C10.8838 24.7622 10.8506 24.8128 10.8343 24.8718C9.60878 26.1158 8.84887 27.8351 8.86293 29.7083L8.93825 39.7376C8.94519 40.6616 9.70684 41.4119 10.6308 41.4049L12.3108 41.3923L12.3423 45.5922C12.3492 46.5162 13.1109 47.2665 14.0349 47.2596L20.7547 47.2091C21.6787 47.2022 22.429 46.4405 22.422 45.5165L22.3905 41.3166L35.8301 41.2157L35.8616 45.4156C35.8686 46.3396 36.6302 47.0899 37.5542 47.0829L44.274 47.0325C45.198 47.0255 45.9483 46.2639 45.9414 45.3399L45.9098 41.14L47.5898 41.1274C48.5137 41.1205 49.264 40.3588 49.2571 39.4348L49.1818 29.4055C49.1676 27.5156 48.3734 25.7911 47.121 24.5657C47.1039 24.5238 47.0867 24.4735 47.0696 24.4316L42.1144 14.4894L42.0376 14.3303L42.0126 14.3557C41.3538 12.7646 39.9603 11.7755 38.2132 11.7886L19.5741 11.9286L19.5742 11.937ZM19.5994 15.2969L38.2385 15.1569C38.3309 15.1562 38.9388 15.5716 38.9816 15.6805C38.9988 15.7308 39.0161 15.7895 39.0332 15.8397L42.4448 22.6939L15.5068 22.8962L18.815 15.9916C18.8314 15.941 18.8478 15.8905 18.8642 15.8316C18.9054 15.7221 19.507 15.2976 19.5994 15.2969ZM15.3975 26.2487L42.596 26.0445C44.3515 26.0313 45.8072 27.4736 45.8219 29.4308L45.8846 37.7801L12.2855 38.0324L12.2228 29.6831C12.2081 27.7259 13.642 26.2619 15.3975 26.2487ZM14.7424 29.6137L14.7802 34.6536L19.1397 34.6209C20.4417 34.6111 21.4916 33.4776 21.4811 32.0832C21.4707 30.6888 20.4038 29.5712 19.1019 29.581L14.7424 29.6137ZM38.9421 29.432C37.6401 29.4418 36.5902 30.5753 36.6007 31.9697C36.6112 33.364 37.678 34.4816 38.98 34.4719L43.3394 34.4391L43.3016 29.3993L38.9421 29.432ZM15.6707 41.3671L19.0306 41.3419L19.0495 43.8618L15.6896 43.887L15.6707 41.3671ZM39.19 41.1905L42.5499 41.1653L42.5688 43.6852L39.2089 43.7104L39.19 41.1905ZM26.7165 58.0846L31.7564 58.0468L31.8573 71.4864L26.8174 71.5242L26.7165 58.0846Z" fill="#127BD7"/>
</g>
<defs>
<clipPath id="clip0_478_218">
<rect width="80" height="80" fill="white" transform="translate(0.123047 0.799377) rotate(-0.430259)"/>
</clipPath>
</defs>
</svg>
