<svg width="81" height="82" viewBox="0 0 81 82" fill="none" xmlns="http://www.w3.org/2000/svg">
<path d="M0.733741 72.5456C0.99412 73.9486 1.67744 75.2408 2.69396 76.2526C3.71049 77.2643 5.01268 77.9483 6.42954 78.2147C6.7121 78.2669 6.99757 78.3024 7.28442 78.3209L15.231 78.2612C28.0334 78.1651 40.8352 77.9805 52.0339 77.7113L60.1013 77.4979L62.1429 77.4826C63.3544 77.3552 64.5068 76.8994 65.4731 76.1653C66.4393 75.4312 67.1817 74.4474 67.6185 73.3225C67.8837 72.6296 68.0241 71.8961 68.0333 71.1553C68.0303 70.7531 68.0288 70.552 68.0266 70.2624L68.0206 69.4579L67.8757 66.41C67.7924 64.7051 67.7047 63.1451 67.6128 61.7299L71.7528 61.6988C71.9799 61.6779 72.2052 61.6412 72.4271 61.5891C73.0945 61.4277 73.7192 61.1266 74.2591 60.7063C74.7989 60.2859 75.2414 59.756 75.5567 59.1522C75.7495 58.7476 75.8859 58.3189 75.962 57.8781C76.0054 57.6601 76.0336 57.4395 76.0465 57.2177L76.0106 52.4394L75.8796 46.9055L75.8709 45.7471C75.8515 45.5472 75.8202 45.3487 75.777 45.1525C75.597 44.3775 75.216 43.6622 74.6714 43.0772C74.1421 42.5047 73.4719 42.0773 72.7262 41.8368C72.0971 41.6446 71.4367 41.5731 70.7805 41.6261L67.4708 41.7475C67.6316 39.3329 67.7637 36.3392 67.868 32.8952L67.8629 32.2195C67.8792 31.9193 67.8769 31.6184 67.8562 31.3185C67.786 30.6872 67.6195 30.07 67.3625 29.488C66.937 28.5475 66.2939 27.7191 65.485 27.0698C64.6762 26.4204 63.7243 25.9683 62.7061 25.7499C62.058 25.6202 61.3975 25.5604 60.7363 25.5716L60.5004 25.5734C60.4989 25.3723 60.5705 25.1545 60.6014 24.9371C60.6712 24.478 60.7325 23.9868 60.7856 23.4715L60.8609 22.6665L60.8578 22.2562C60.8663 22.082 60.865 21.9074 60.8539 21.7333C60.8429 20.8444 60.631 19.9692 60.2338 19.1718C59.8365 18.3744 59.264 17.675 58.558 17.1248C57.7968 16.5285 56.9051 16.1164 55.9542 15.9215C55.7102 15.9234 55.4655 15.8367 55.2213 15.8224C54.9772 15.8082 54.6764 15.8265 54.5544 15.8275L53.6841 15.834C49.7073 15.7932 45.7348 16.1085 41.8153 16.7759C39.1672 14.0122 36.2167 11.0498 33.2176 8.11982C33.0083 7.91585 32.7605 7.75466 32.4882 7.64545C32.2159 7.53625 31.9246 7.48118 31.6307 7.48339C31.3369 7.4856 31.0464 7.54504 30.7758 7.65831C30.5052 7.77159 30.2598 7.93649 30.0536 8.14358C27.0019 11.2075 24.0074 14.3111 21.3285 17.1872C18.8871 17.0285 15.8195 16.8906 12.3372 16.78L9.52218 16.6966L8.04963 16.6594L7.30133 16.665C6.96996 16.6589 6.63854 16.6748 6.30932 16.7127C4.86238 16.871 3.50879 17.4977 2.45899 18.4954C1.36885 19.564 0.679349 20.9681 0.504155 22.4762C0.373819 23.7622 0.617793 25.0583 1.20734 26.2117C0.936039 32.3279 0.794497 40.5588 0.702201 49.9318C0.646159 55.4671 0.617538 61.4044 0.614768 67.5346L0.64588 71.6774C0.65436 71.9685 0.683721 72.2587 0.733741 72.5456ZM53.7171 20.2343L54.986 20.2248C55.0592 20.2242 55.1324 20.2237 55.2137 20.223C55.5043 20.2732 55.7817 20.3806 56.0295 20.5387C56.2881 20.7012 56.5114 20.9129 56.6864 21.1616C56.8615 21.4103 56.9847 21.6909 57.049 21.9872C57.0765 22.087 57.0936 22.1893 57.1001 22.2925L57.1032 22.7028L57.1906 23.5066C57.2514 24.021 57.3201 24.5112 57.3968 24.9692C57.3982 25.1623 57.4648 25.3548 57.4986 25.5316C54.9767 25.4942 52.3493 25.4737 49.6486 25.4538C48.3839 23.8543 46.7106 21.9924 44.7261 19.8593C47.7143 20.1415 50.7155 20.2667 53.7171 20.2343ZM31.699 12.7892C36.7544 17.6586 41.8077 22.2625 45.622 25.4357C40.0337 25.4133 34.2342 25.4328 28.3861 25.4767C24.913 25.5028 21.4481 25.5288 18.0319 25.5544C21.7822 22.3646 26.7253 17.7017 31.699 12.7892ZM5.14641 21.0817C5.57472 20.615 6.14209 20.2951 6.76638 20.1685C6.93798 20.1355 7.11185 20.1154 7.28651 20.1083L8.03481 20.1027L9.50665 20.0434L12.3201 19.9177C14.8327 19.8023 17.1174 19.6725 19.1255 19.5367C17.0119 21.8695 15.2056 23.9667 13.86 25.6662L13.2906 25.6705L9.63889 25.7381L7.84134 25.7516C7.42127 25.7915 6.99788 25.7812 6.58032 25.7209C5.9253 25.5823 5.34402 25.2119 4.94567 24.6793C4.54934 24.1463 4.35187 23.4939 4.38682 22.8332C4.43733 22.1824 4.70445 21.5665 5.14641 21.0817ZM5.65039 29.702C6.39022 29.8642 7.14768 29.9342 7.90511 29.9103L9.70265 29.8968L13.355 29.9096C18.2356 29.9213 23.3274 29.9072 28.3947 29.8691C38.5293 29.793 48.6632 29.6284 57.5194 29.3769L60.7723 29.28C61.1641 29.2379 61.5592 29.2349 61.9517 29.2712C62.268 29.3251 62.5736 29.4287 62.8569 29.5781C63.4242 29.8702 63.8875 30.3272 64.1844 30.8875C64.3307 31.1593 64.4344 31.4515 64.4919 31.7541C64.5216 31.9108 64.5418 32.0691 64.5524 32.2282L64.5575 32.904C64.7216 36.3459 64.8986 39.3373 65.096 41.7895C60.6644 41.9917 56.8595 42.2375 54.0716 42.5239C53.7951 42.526 53.5878 43.0907 53.6087 43.71C53.6296 44.3293 53.8359 44.7139 54.0882 44.7361C57.9952 45.0769 63.8535 45.3144 70.7195 45.4157C71.297 45.4114 71.2075 45.4121 71.3382 45.4835C71.4258 45.5238 71.5019 45.5851 71.5593 45.662C71.6167 45.7389 71.6537 45.8288 71.6669 45.9235L71.6738 46.8486L71.6259 52.3758L71.6593 56.8243C71.6593 56.8243 71.6593 56.8243 71.6596 56.8726C71.6613 56.902 71.6615 56.9316 71.6603 56.9611C71.6215 57.0189 71.5687 57.0663 71.5068 57.099C71.4771 57.1027 71.447 57.1029 71.4173 57.0997L68.1882 57.1239C64.2678 57.1533 60.3555 57.1827 56.5576 57.2836L54.4347 57.2996C54.1907 57.3014 53.963 57.3031 53.8084 57.3043C53.1133 57.3062 52.4226 57.1945 51.7643 56.9737C50.5065 56.588 49.3955 55.8367 48.5758 54.8175C47.8835 53.818 47.5007 52.6405 47.4743 51.4291C47.4479 50.2178 47.7789 49.025 48.4269 47.9966C48.9577 47.1499 49.6658 46.4256 50.5035 45.8725C51.3413 45.3194 52.2892 44.9504 53.2833 44.7904C53.5111 44.7887 53.6939 44.2162 53.673 43.6049C53.669 43.0659 53.4299 42.6494 53.1452 42.6435C51.8765 42.6184 50.6176 42.8695 49.4578 43.3791C48.0316 43.9981 46.7898 44.9686 45.8512 46.1978C45.3179 46.8842 44.8829 47.64 44.5584 48.444C44.2221 49.3077 44.0099 50.2137 43.9279 51.1357C43.7578 53.1628 44.2522 55.1901 45.3379 56.9174C46.2373 58.3244 47.4698 59.4935 48.9287 60.3236C50.3876 61.1537 52.0291 61.6197 53.7111 61.6814C54.0284 61.679 54.2561 61.6773 54.5245 61.6753L56.6474 61.6594C59.4861 61.6381 62.4065 61.6724 65.3347 61.6585C65.264 63.0803 65.1998 64.6442 65.1421 66.3501L65.043 69.3998L65.0491 70.2043C65.0509 70.4537 65.0535 70.7996 65.0546 70.9444C65.0028 71.3457 64.8761 71.734 64.6809 72.0895C64.353 72.8014 63.781 73.3756 63.0663 73.7106C62.7002 73.8748 62.3065 73.9705 61.9052 73.9929L60.1321 74.0062L52.0623 73.9139C40.8608 73.813 28.0578 73.8207 15.2553 73.9168L7.56902 73.9746C7.46071 73.9816 7.35207 73.9824 7.24367 73.977C6.70332 73.8783 6.2053 73.6217 5.81386 73.2404C5.42243 72.859 5.15555 72.3703 5.04765 71.8375C5.03805 71.7304 5.03724 71.6228 5.04523 71.5157L5.01575 67.59C4.92092 61.4605 4.80313 55.5243 4.66397 49.9905C4.46529 41.9472 4.22469 34.8212 3.94568 29.0793C4.48512 29.3653 5.06136 29.5774 5.65858 29.71L5.65039 29.702Z" fill="#127BD7"/>
<path d="M54.1256 54.0437C55.4642 54.0337 56.5413 52.9523 56.5314 51.6283C56.5215 50.3044 55.4282 49.2392 54.0896 49.2493C52.7509 49.2593 51.6738 50.3408 51.6837 51.6647C51.6937 52.9887 52.7869 54.0538 54.1256 54.0437Z" fill="#127BD7"/>
<path d="M65.6822 12.6144C67.8777 12.5256 71.2764 9.09706 71.3335 6.94061C71.0838 6.63695 70.8096 6.35382 70.5137 6.09401C70.2818 5.85279 70.0298 5.63132 69.7604 5.43194C67.5485 5.51291 64.1415 8.91734 64.1091 11.1058C64.3586 11.4146 64.6327 11.7031 64.929 11.9685C65.1621 12.2035 65.4139 12.4195 65.6822 12.6144Z" fill="#127BD7"/>
<path d="M68.3634 20.8805C68.3539 21.2246 68.3728 21.5688 68.42 21.9098C69.9847 23.3864 74.6777 23.335 76.2202 21.8513C76.2638 21.4666 76.2772 21.0792 76.2603 20.6925C76.269 20.3591 76.2502 20.0257 76.204 19.6954C74.6391 18.2027 69.9459 18.2299 68.4038 19.7539C68.3622 20.128 68.3488 20.5045 68.3634 20.8805Z" fill="#127BD7"/>
<path d="M56.0713 8.76877C56.4191 8.77816 56.7672 8.7594 57.112 8.71269C58.6052 7.16491 58.5541 2.52341 57.0541 0.998105C56.6652 0.954961 56.2735 0.941765 55.8825 0.958634C55.5454 0.95006 55.2082 0.968736 54.8743 1.01447C53.3648 2.56238 53.3915 7.20406 54.9322 8.72906C55.3104 8.77007 55.6911 8.78335 56.0713 8.76877Z" fill="#127BD7"/>
</svg>
