<svg width="81" height="82" viewBox="0 0 81 82" fill="none" xmlns="http://www.w3.org/2000/svg">
<g clip-path="url(#clip0_478_231)">
<path d="M81.2185 81.3339L2.20076 81.9273C1.73277 81.9308 1.36096 81.5573 1.35753 81.1003C1.29852 73.2426 7.6495 66.8242 15.5423 66.7649L67.6598 66.3736C75.5526 66.3143 81.9992 72.6366 82.0582 80.4943C82.0617 80.9513 81.6865 81.3304 81.2185 81.3339ZM5.89256 78.5574L77.4765 78.0199C78.0345 78.0157 78.4355 77.484 78.2875 76.9475C77.0589 72.7454 73.1388 69.6836 68.531 69.7182L14.7215 70.1222C10.1136 70.1568 6.23992 73.2772 5.07457 77.4973C4.92555 78.0271 5.33457 78.5616 5.89256 78.5574Z" fill="#127BD7"/>
<path d="M67.3969 69.7266C66.47 69.7335 65.7083 68.9866 65.7014 68.0637L65.6427 60.2508C65.6358 59.328 66.3861 58.5697 67.3131 58.5627C68.2401 58.5558 69.0017 59.3027 69.0086 60.2255L69.0673 68.0384C69.0742 68.9613 68.3329 69.7195 67.3969 69.7266Z" fill="#127BD7"/>
<path d="M67.6624 47.5301C67.5994 47.5305 67.5454 47.531 67.4823 47.5225C66.5546 47.4309 65.8825 46.6116 65.9746 45.6969C66.0585 44.8899 66.0883 44.0564 66.0821 43.2321C66.0307 36.3958 62.9674 29.9674 57.6874 25.5896C57.5696 25.492 57.4429 25.3944 57.3161 25.2878C56.5917 24.7108 56.4669 23.6634 57.0464 22.9333C57.626 22.2121 58.6781 22.0877 59.4115 22.6646C59.5563 22.78 59.6922 22.8955 59.8371 23.0109C65.8868 28.019 69.3892 35.376 69.4479 43.1978C69.455 44.1386 69.4081 45.0798 69.3161 46.0123C69.2326 46.8821 68.5084 47.5237 67.6624 47.5301Z" fill="#127BD7"/>
<path d="M43.0258 69.9098C31.6771 69.995 21.5075 62.8942 17.7194 52.251C17.4069 51.3842 17.8677 50.422 18.7474 50.1107C19.6272 49.8084 20.5846 50.2582 20.8971 51.134C24.1981 60.4368 33.0829 66.6333 43.0006 66.5588C49.6514 66.5089 55.9748 63.612 60.3565 58.6241C60.9633 57.9296 62.0338 57.8589 62.7314 58.4629C63.4289 59.067 63.4998 60.1237 62.8931 60.8272C57.8778 66.5367 50.6395 69.8526 43.0258 69.9098Z" fill="#127BD7"/>
<path d="M42.9627 61.5322C36.4199 61.5814 30.3186 58.1058 27.0451 52.4586C26.5801 51.6556 26.8604 50.6321 27.658 50.1691C28.4645 49.7061 29.4926 49.9851 29.9576 50.779C32.6292 55.3825 37.6007 58.2214 42.9376 58.1813C51.1273 58.1198 57.7373 51.4396 57.6761 43.2862C57.6403 38.5196 55.2755 34.0304 51.3488 31.2822C50.5888 30.7503 50.41 29.7122 50.9352 28.9467C51.4696 28.19 52.5122 28.0029 53.2812 28.5348C58.0946 31.8946 60.998 37.4012 61.042 43.252C61.1082 53.269 53.0064 61.4568 42.9627 61.5322Z" fill="#127BD7"/>
<path d="M64.2519 60.8168C59.7701 60.8505 56.0979 57.2492 56.0644 52.7872C56.0309 48.3253 59.6486 44.6692 64.1304 44.6355C68.6123 44.6019 72.2844 48.2032 72.318 52.6652C72.3515 57.1271 68.7338 60.7832 64.2519 60.8168ZM64.1556 47.9865C61.5277 48.0062 59.4107 50.1547 59.4303 52.7619C59.4499 55.3692 61.6079 57.4856 64.2268 57.4659C66.8457 57.4462 68.9716 55.2977 68.9521 52.6904C68.9324 50.0742 66.7835 47.9667 64.1556 47.9865Z" fill="#127BD7"/>
<path d="M41.496 53.1744L7.87294 53.4269C6.94596 53.4338 6.18433 52.6869 6.1774 51.764C6.17047 50.8412 6.9208 50.0829 7.84777 50.0759L41.4708 49.8234C42.3978 49.8165 43.1594 50.5634 43.1664 51.4863C43.1733 52.4091 42.423 53.1674 41.496 53.1744Z" fill="#127BD7"/>
<path d="M38.8745 38.4903L34.0871 33.7953C32.3553 32.0968 32.3346 29.3372 34.0407 27.613L54.1209 7.31959C55.827 5.59536 58.5989 5.57455 60.3307 7.27295L65.1181 11.968C66.8499 13.6664 66.8706 16.426 65.1645 18.1502L45.0844 38.4437C43.3872 40.1589 40.6063 40.1798 38.8745 38.4903ZM38.839 33.7596C40.5708 35.458 43.3427 35.4372 45.0488 33.7129L60.4127 18.1859C62.1188 16.4617 62.098 13.7021 60.3662 12.0037C58.6344 10.3053 55.8625 10.3261 54.1564 12.0503L38.7926 27.5773C37.0954 29.2925 37.1162 32.0611 38.839 33.7596Z" fill="#127BD7"/>
<path d="M65.1433 14.1005C64.6753 14.104 64.1968 13.9104 63.861 13.5277C63.2709 12.8511 63.3801 11.8199 64.0053 11.179L67.3639 7.78473L64.4987 4.9748L60.7382 8.77531C60.1486 9.37112 59.1957 9.52164 58.5171 9.04288C57.6485 8.43114 57.5674 7.22212 58.282 6.49097L61.6763 3.06059C63.2127 1.50788 65.7326 1.48896 67.2921 3.01841L69.2869 4.97469C70.8464 6.50414 70.8652 9.01287 69.3289 10.5656L66.3276 13.5988C66.0061 13.9327 65.5753 14.0972 65.1433 14.1005Z" fill="#127BD7"/>
</g>
<defs>
<clipPath id="clip0_478_231">
<rect width="80" height="80" fill="white" transform="translate(0.107178 1.53406) rotate(-0.430259)"/>
</clipPath>
</defs>
</svg>
