<svg width="35" height="44" viewBox="0 0 35 44" fill="none" xmlns="http://www.w3.org/2000/svg">
<path d="M22.6316 29.1574C24.3407 29.1446 25.9416 28.4597 27.1419 27.2269C28.2107 26.1291 28.8183 24.6946 28.8673 23.1621L23.3718 21.1241L21.3162 23.235L22.6316 29.1574ZM22.6316 29.1574C21.5004 29.1659 20.3833 28.8692 19.4012 28.2995C13.9994 25.166 9.4635 20.6453 6.28464 15.2267C5.70659 14.2412 5.39653 13.1145 5.38792 11.9686C5.37492 10.2373 6.02895 8.60594 7.22895 7.37311C8.29731 6.27582 9.7037 5.64082 11.2138 5.5673M22.6316 29.1574L11.2138 5.5673M11.2138 5.5673L13.3118 11.1002L11.2545 13.2135L11.2138 5.5673ZM11.1333 14.5502C10.8536 14.1327 10.9038 13.5733 11.2544 13.2136L11.1333 14.5502ZM11.1333 14.5502C13.493 18.0736 16.4734 21.0441 19.9905 23.378M11.1333 14.5502L19.9905 23.378M19.9905 23.378C20.4099 23.6566 20.9654 23.596 21.316 23.2352L19.9905 23.378ZM23.4599 18.8986L23.4595 18.8985C23.0724 18.7558 22.6386 18.8538 22.3492 19.1503L22.349 19.1505L20.4318 21.1195C17.6894 19.1841 15.3167 16.8189 13.3627 14.0727L15.2822 12.1009C15.2822 12.1009 15.2822 12.1009 15.2822 12.1009C15.5706 11.8047 15.6606 11.3659 15.5139 10.9788L15.5139 10.9788L12.9124 4.11831C12.7565 3.70615 12.363 3.43379 11.924 3.43709L11.4487 3.44066C9.28224 3.45693 7.25096 4.32633 5.73136 5.88708C4.13826 7.52297 3.27075 9.68923 3.28798 11.9843C3.29939 13.5043 3.7108 14.9991 4.47806 16.3066C7.84073 22.0388 12.6389 26.8216 18.3549 30.1376L18.3549 30.1377C19.6598 30.8945 21.1439 31.2886 22.6476 31.2773C24.9185 31.2603 27.047 30.3489 28.6398 28.7133L28.6398 28.7133C30.1593 27.1526 30.9871 25.0861 30.9707 22.8955L30.9671 22.4146C30.9638 21.9743 30.6909 21.5802 30.2791 21.4275L23.4599 18.8986Z" fill="#127BD7" stroke="#127BD7" stroke-width="0.4"/>
</svg>
