<svg width="255" height="273" viewBox="0 0 255 273" fill="none" xmlns="http://www.w3.org/2000/svg">
<path d="M56.7549 270.24C74.6406 278.093 93.2578 265.054 104.377 251.649C111.765 242.81 116.667 232.525 129.396 231.064C139.308 229.931 145.489 231.195 148.89 238.72C156.352 255.01 164.508 271.3 184.918 272.432C199.767 273.272 218.092 252.709 218.86 251.467C237.66 220.896 238.575 180.098 246.219 145.582C253.681 111.943 257.411 77.0981 252.181 42.765C248.34 17.6725 224.566 3.93928 200.974 1.49213C173.835 -1.32027 146.988 7.88394 119.812 8.21266C104.962 8.39528 90.3317 4.1219 75.7013 2.22262C57.6327 -0.114959 39.8567 2.07652 26.3236 15.2619C-0.706176 41.5596 -1.18166 90.32 1.37866 125.128C3.71953 156.758 11.8394 187.695 21.971 217.681C28.445 236.82 36.4551 261.328 56.7549 270.24Z" fill="#A1CCF1"/>
</svg>
